<?xml version="1.0" standalone="no"?>
<!DOCTYPE svg PUBLIC "-//W3C//DTD SVG 20010904//EN"
 "http://www.w3.org/TR/2001/REC-SVG-20010904/DTD/svg10.dtd">
<svg version="1.0" xmlns="http://www.w3.org/2000/svg"
 width="700.000000pt" height="700.000000pt" viewBox="0 0 700.000000 700.000000"
 preserveAspectRatio="xMidYMid meet">
<metadata>
Created by potrace 1.14, written by Peter Selinger 2001-2017
</metadata>
<g transform="translate(0.000000,700.000000) scale(0.100000,-0.100000)"
fill="#000000" stroke="none">
<path d="M3337 6994 c-1 -1 -48 -5 -104 -8 -55 -4 -112 -9 -125 -11 -12 -2
-43 -6 -68 -9 -25 -4 -56 -8 -70 -10 -14 -3 -41 -7 -60 -10 -62 -10 -122 -22
-250 -53 -124 -29 -365 -107 -470 -152 -150 -64 -279 -126 -385 -184 -128 -72
-357 -223 -460 -304 -99 -78 -215 -183 -320 -288 -146 -146 -212 -222 -327
-375 -391 -520 -630 -1159 -685 -1825 -9 -112 -9 -399 0 -525 60 -841 441
-1658 1048 -2245 192 -186 309 -280 524 -421 153 -101 165 -108 380 -214 349
-172 689 -275 1085 -330 227 -32 679 -34 880 -4 592 88 1064 264 1515 567 248
166 505 391 678 592 33 39 63 72 66 75 14 11 142 181 196 260 197 289 366 642
459 955 38 130 89 340 102 420 4 28 9 57 10 65 2 8 6 35 9 60 3 25 8 63 10 85
21 155 28 588 12 695 -3 19 -9 67 -12 105 -4 39 -15 117 -26 175 -24 140 -28
155 -46 225 -8 33 -17 68 -18 78 -10 49 -69 233 -113 353 -93 251 -277 593
-434 807 -182 250 -483 564 -673 703 -22 16 -46 35 -53 42 -21 20 -189 135
-282 192 -85 53 -387 211 -425 223 -11 3 -54 20 -95 37 -298 127 -686 218
-1045 246 -77 6 -423 13 -428 8z"/>
</g>
</svg>
